<svg xmlns="http://www.w3.org/2000/svg" version="1.1" xmlns:xlink="http://www.w3.org/1999/xlink" xmlns:svgjs="http://svgjs.dev/svgjs" viewBox="0 0 2400 800" opacity="0.92"><defs><linearGradient x1="50%" y1="0%" x2="50%" y2="100%" id="sssurf-grad"><stop stop-color="hsla(190, 100%, 58%, 1)" stop-opacity="1" offset="0%"></stop><stop stop-color="hsla(0, 73%, 53%, 1)" stop-opacity="1" offset="100%"></stop></linearGradient></defs><g fill="url(#sssurf-grad)" transform="matrix(1,0,0,1,9.6998291015625,256.1157627105713)"><path d="M-10,10C30.544871794871796,10.416666666666666,105.60897435897436,17.416666666666664,184.6153846153846,12C263.62179487179486,6.583333333333334,292.3076923076923,-18.916666666666668,369.2307692307692,-16C446.15384615384613,-13.083333333333332,476.9230769230769,23.291666666666668,553.8461538461538,26C630.7692307692307,28.708333333333332,661.5384615384615,-2.5833333333333335,738.4615384615385,-3C815.3846153846154,-3.4166666666666665,846.1538461538462,25.458333333333332,923.0769230769231,24C1000,22.541666666666668,1030.7692307692307,-11.041666666666666,1107.6923076923076,-10C1184.6153846153845,-8.958333333333334,1215.3846153846155,29.833333333333332,1292.3076923076924,29C1369.2307692307693,28.166666666666668,1400,-19,1476.923076923077,-14C1553.8461538461538,-9,1584.6153846153845,51.541666666666664,1661.5384615384614,53C1738.4615384615383,54.458333333333336,1769.2307692307693,-4.083333333333333,1846.1538461538462,-7C1923.076923076923,-9.916666666666668,1953.8461538461538,36.916666666666664,2030.7692307692307,39C2107.6923076923076,41.083333333333336,2138.461538461538,3,2215.3846153846152,3C2292.3076923076924,3,2309.455128205128,-43.70833333333334,2400,39C2490.544871794872,121.70833333333334,3254.1666666666665,220.625,2650,400C2045.8333333333335,579.375,156.25,795.8333333333334,-500,900" transform="matrix(1,0,0,1,0,34)" opacity="0.05"></path><path d="M-10,10C30.544871794871796,10.416666666666666,105.60897435897436,17.416666666666664,184.6153846153846,12C263.62179487179486,6.583333333333334,292.3076923076923,-18.916666666666668,369.2307692307692,-16C446.15384615384613,-13.083333333333332,476.9230769230769,23.291666666666668,553.8461538461538,26C630.7692307692307,28.708333333333332,661.5384615384615,-2.5833333333333335,738.4615384615385,-3C815.3846153846154,-3.4166666666666665,846.1538461538462,25.458333333333332,923.0769230769231,24C1000,22.541666666666668,1030.7692307692307,-11.041666666666666,1107.6923076923076,-10C1184.6153846153845,-8.958333333333334,1215.3846153846155,29.833333333333332,1292.3076923076924,29C1369.2307692307693,28.166666666666668,1400,-19,1476.923076923077,-14C1553.8461538461538,-9,1584.6153846153845,51.541666666666664,1661.5384615384614,53C1738.4615384615383,54.458333333333336,1769.2307692307693,-4.083333333333333,1846.1538461538462,-7C1923.076923076923,-9.916666666666668,1953.8461538461538,36.916666666666664,2030.7692307692307,39C2107.6923076923076,41.083333333333336,2138.461538461538,3,2215.3846153846152,3C2292.3076923076924,3,2309.455128205128,-43.70833333333334,2400,39C2490.544871794872,121.70833333333334,3254.1666666666665,220.625,2650,400C2045.8333333333335,579.375,156.25,795.8333333333334,-500,900" transform="matrix(1,0,0,1,0,68)" opacity="0.29"></path><path d="M-10,10C30.544871794871796,10.416666666666666,105.60897435897436,17.416666666666664,184.6153846153846,12C263.62179487179486,6.583333333333334,292.3076923076923,-18.916666666666668,369.2307692307692,-16C446.15384615384613,-13.083333333333332,476.9230769230769,23.291666666666668,553.8461538461538,26C630.7692307692307,28.708333333333332,661.5384615384615,-2.5833333333333335,738.4615384615385,-3C815.3846153846154,-3.4166666666666665,846.1538461538462,25.458333333333332,923.0769230769231,24C1000,22.541666666666668,1030.7692307692307,-11.041666666666666,1107.6923076923076,-10C1184.6153846153845,-8.958333333333334,1215.3846153846155,29.833333333333332,1292.3076923076924,29C1369.2307692307693,28.166666666666668,1400,-19,1476.923076923077,-14C1553.8461538461538,-9,1584.6153846153845,51.541666666666664,1661.5384615384614,53C1738.4615384615383,54.458333333333336,1769.2307692307693,-4.083333333333333,1846.1538461538462,-7C1923.076923076923,-9.916666666666668,1953.8461538461538,36.916666666666664,2030.7692307692307,39C2107.6923076923076,41.083333333333336,2138.461538461538,3,2215.3846153846152,3C2292.3076923076924,3,2309.455128205128,-43.70833333333334,2400,39C2490.544871794872,121.70833333333334,3254.1666666666665,220.625,2650,400C2045.8333333333335,579.375,156.25,795.8333333333334,-500,900" transform="matrix(1,0,0,1,0,102)" opacity="0.53"></path><path d="M-10,10C30.544871794871796,10.416666666666666,105.60897435897436,17.416666666666664,184.6153846153846,12C263.62179487179486,6.583333333333334,292.3076923076923,-18.916666666666668,369.2307692307692,-16C446.15384615384613,-13.083333333333332,476.9230769230769,23.291666666666668,553.8461538461538,26C630.7692307692307,28.708333333333332,661.5384615384615,-2.5833333333333335,738.4615384615385,-3C815.3846153846154,-3.4166666666666665,846.1538461538462,25.458333333333332,923.0769230769231,24C1000,22.541666666666668,1030.7692307692307,-11.041666666666666,1107.6923076923076,-10C1184.6153846153845,-8.958333333333334,1215.3846153846155,29.833333333333332,1292.3076923076924,29C1369.2307692307693,28.166666666666668,1400,-19,1476.923076923077,-14C1553.8461538461538,-9,1584.6153846153845,51.541666666666664,1661.5384615384614,53C1738.4615384615383,54.458333333333336,1769.2307692307693,-4.083333333333333,1846.1538461538462,-7C1923.076923076923,-9.916666666666668,1953.8461538461538,36.916666666666664,2030.7692307692307,39C2107.6923076923076,41.083333333333336,2138.461538461538,3,2215.3846153846152,3C2292.3076923076924,3,2309.455128205128,-43.70833333333334,2400,39C2490.544871794872,121.70833333333334,3254.1666666666665,220.625,2650,400C2045.8333333333335,579.375,156.25,795.8333333333334,-500,900" transform="matrix(1,0,0,1,0,136)" opacity="0.76"></path><path d="M-10,10C30.544871794871796,10.416666666666666,105.60897435897436,17.416666666666664,184.6153846153846,12C263.62179487179486,6.583333333333334,292.3076923076923,-18.916666666666668,369.2307692307692,-16C446.15384615384613,-13.083333333333332,476.9230769230769,23.291666666666668,553.8461538461538,26C630.7692307692307,28.708333333333332,661.5384615384615,-2.5833333333333335,738.4615384615385,-3C815.3846153846154,-3.4166666666666665,846.1538461538462,25.458333333333332,923.0769230769231,24C1000,22.541666666666668,1030.7692307692307,-11.041666666666666,1107.6923076923076,-10C1184.6153846153845,-8.958333333333334,1215.3846153846155,29.833333333333332,1292.3076923076924,29C1369.2307692307693,28.166666666666668,1400,-19,1476.923076923077,-14C1553.8461538461538,-9,1584.6153846153845,51.541666666666664,1661.5384615384614,53C1738.4615384615383,54.458333333333336,1769.2307692307693,-4.083333333333333,1846.1538461538462,-7C1923.076923076923,-9.916666666666668,1953.8461538461538,36.916666666666664,2030.7692307692307,39C2107.6923076923076,41.083333333333336,2138.461538461538,3,2215.3846153846152,3C2292.3076923076924,3,2309.455128205128,-43.70833333333334,2400,39C2490.544871794872,121.70833333333334,3254.1666666666665,220.625,2650,400C2045.8333333333335,579.375,156.25,795.8333333333334,-500,900" transform="matrix(1,0,0,1,0,170)" opacity="1.00"></path></g></svg>